<svg xmlns="http://www.w3.org/2000/svg" xmlns:xlink="http://www.w3.org/1999/xlink" id="Layer_1" x="0" y="0" version="1.1" viewBox="0 0 512 512" xml:space="preserve" style="enable-background:new 0 0 512 512"><path style="fill:#f2f2f2" d="M501.971,65.452H75.48c-4.374,0-7.918,3.545-7.918,7.918v430.713c0,4.373,3.544,7.918,7.918,7.918	h426.491c4.374,0,7.918-3.545,7.918-7.918V73.369C509.889,68.996,506.345,65.452,501.971,65.452z"/><path style="fill:#e5e5e5" d="M75.48,65.452c-4.374,0-7.918,3.545-7.918,7.918v430.713c0,4.373,3.544,7.918,7.918,7.918h89.732	V65.452H75.48z"/><path style="fill:#ef9d3c" d="M140.404,64.924c0-0.77-0.11-1.512-0.315-2.215C136.821,27.408,106.908,0,71.258,0	S5.694,27.408,2.426,62.709c-0.205,0.703-0.315,1.445-0.315,2.215v373.707c0,1.405,0,2.812,0,4.223	c0,38.128,138.293,38.128,138.293,0c0-1.41,0-2.818,0-4.223V64.924z"/><path style="fill:#e2771e" d="M2.426,62.709c-0.205,0.703-0.315,1.445-0.315,2.215c0,0,0.024,380.042,0.074,381.038	c1.123,22.797,35.291,21.72,35.291-1.104V8.87C18.239,19.71,4.574,39.503,2.426,62.709z"/><path style="fill:#ccc" d="M71.258,373.707c-38.128,0-69.146,31.019-69.146,69.146S33.13,512,71.258,512	s69.146-31.019,69.146-69.146S109.385,373.707,71.258,373.707z"/><path style="fill:#e2771e" d="M71.258,405.377c-20.665,0-37.476,16.812-37.476,37.476c0,20.665,16.812,37.476,37.476,37.476	s37.476-16.812,37.476-37.476C108.734,422.189,91.922,405.377,71.258,405.377z"/><path style="fill:#eb6836" d="M229.608,450.243h203.007v-31.885c0-1.339-1.085-2.424-2.424-2.424H229.647	c-0.948-0.013-1.934,0.171-2.82,0.505l-1.042,0.326v32.716l2.192,0.592C228.504,450.183,229.049,450.243,229.608,450.243z"/><path style="fill:#c74b38" d="M432.616,458.904v-8.661H229.608c-0.56,0-1.104-0.06-1.631-0.17l-2.192-0.592v11.085l2.192,0.592	c0.527,0.11,1.072,0.17,1.631,0.17h200.583C431.529,461.328,432.616,460.243,432.616,458.904z"/><path style="fill:#e5e5e5" d="M455.522,415.934h-29.559v45.394h29.559c4.374,0,7.918-3.545,7.918-7.918v-29.559	C463.439,419.479,459.895,415.934,455.522,415.934z"/><path style="fill:#f7d04a" d="M229.647,415.934c-0.948-0.013-1.934,0.171-2.82,0.505l-50.672,15.858	c-3.299,1.237-5.384,4.507-5.114,8.02c0.269,3.513,2.829,6.426,6.279,7.145l50.655,13.696c0.527,0.11,1.072,0.17,1.631,0.17h3.871	v-45.394H229.647z"/><path style="fill:#ccc" d="M425.963,461.328h29.559c4.374,0,7.918-3.545,7.918-7.918v-3.167h-37.476V461.328z"/><path style="fill:#f3b41b" d="M227.977,450.073l-50.655-13.696c-1.57-0.327-2.939-1.124-4.008-2.21	c-1.571,1.595-2.45,3.811-2.271,6.149c0.269,3.513,2.829,6.426,6.279,7.145l50.655,13.696c0.527,0.11,1.072,0.17,1.631,0.17h3.871	v-11.085h-3.871C229.049,450.243,228.504,450.183,227.977,450.073z"/><g><path style="fill:#666" d="M438.087,229.285c-0.084-2.009-0.935-3.95-2.383-5.355L322.748,114.14 c-3.072-2.986-7.965-2.986-11.037,0L198.754,223.93c-1.518,1.473-2.398,3.564-2.398,5.677v154.128c0,4.373,3.544,7.918,7.918,7.918 h225.913c4.374,0,7.918-3.545,7.918-7.918V229.607C438.103,229.5,438.092,229.393,438.087,229.285z M317.229,130.86l93.451,90.831 H223.778L317.229,130.86z M292.421,375.819v-74.953h49.617v74.953H292.421z M422.268,375.819h-64.396v-82.87 c0-4.373-3.544-7.918-7.918-7.918h-65.452c-4.374,0-7.918,3.545-7.918,7.918v82.87H212.19V237.526h210.078V375.819z"/><path style="fill:#666" d="M317.229,160.462c-14.844,0-26.92,12.076-26.92,26.92s12.076,26.92,26.92,26.92 s26.92-12.076,26.92-26.92S332.073,160.462,317.229,160.462z M317.229,198.466c-6.112,0-11.085-4.972-11.085-11.085 s4.972-11.085,11.085-11.085s11.085,4.972,11.085,11.085S323.341,198.466,317.229,198.466z"/></g></svg>