<svg xmlns="http://www.w3.org/2000/svg" xmlns:xlink="http://www.w3.org/1999/xlink" id="Layer_1" x="0" y="0" version="1.1" viewBox="0 0 512 512" xml:space="preserve" style="enable-background:new 0 0 512 512"><path style="fill:#844414" d="M123.586,512h88.276V344.276h-88.276V512z"/><path style="fill:#ce8d5b" d="M123.586,344.276h88.276V0h-88.276V344.276z"/><path style="fill:#844414" d="M388.414,512h88.276V247.172h-88.276V512z"/><g><path style="fill:#9e5a23" d="M388.414,247.172h88.276V0h-88.276V247.172z"/><path style="fill:#9e5a23" d="M211.862,512h88.276V158.897h-88.276V512z"/></g><path style="fill:#844414" d="M211.862,158.897h88.276V0h-88.276V158.897z"/><path style="fill:#ce8d5b" d="M300.138,512h88.276V0h-88.276V512z"/><g><path style="fill:#9e5a23" d="M35.31,512h88.276V0H35.31V512z"/><path style="fill:#9e5a23" d="M194.207,370.759c0-5.297-3.531-8.828-8.828-8.828s-8.828,3.531-8.828,8.828 s3.531,8.828,8.828,8.828S194.207,376.055,194.207,370.759"/><path style="fill:#9e5a23" d="M158.897,370.759c0-5.297-3.531-8.828-8.828-8.828s-8.828,3.531-8.828,8.828 s3.531,8.828,8.828,8.828S158.897,376.055,158.897,370.759"/><path style="fill:#9e5a23" d="M141.241,317.793c0,5.297,3.531,8.828,8.828,8.828s8.828-3.531,8.828-8.828 s-3.531-8.828-8.828-8.828S141.241,312.497,141.241,317.793"/><path style="fill:#9e5a23" d="M176.552,317.793c0,5.297,3.531,8.828,8.828,8.828s8.828-3.531,8.828-8.828 s-3.531-8.828-8.828-8.828S176.552,312.497,176.552,317.793"/><path style="fill:#9e5a23" d="M459.034,273.655c0-5.297-3.531-8.828-8.828-8.828c-5.297,0-8.828,3.531-8.828,8.828 c0,5.297,3.531,8.828,8.828,8.828C455.503,282.483,459.034,278.952,459.034,273.655"/><path style="fill:#9e5a23" d="M423.724,273.655c0-5.297-3.531-8.828-8.828-8.828s-8.828,3.531-8.828,8.828 c0,5.297,3.531,8.828,8.828,8.828S423.724,278.952,423.724,273.655"/></g><g><path style="fill:#844414" d="M406.069,220.69c0,5.297,3.531,8.828,8.828,8.828s8.828-3.531,8.828-8.828s-3.531-8.828-8.828-8.828 S406.069,215.393,406.069,220.69"/><path style="fill:#844414" d="M441.379,220.69c0,5.297,3.531,8.828,8.828,8.828c5.297,0,8.828-3.531,8.828-8.828 s-3.531-8.828-8.828-8.828C444.91,211.862,441.379,215.393,441.379,220.69"/></g><g><path style="fill:#ce8d5b" d="M282.483,185.379c0-5.297-3.531-8.828-8.828-8.828c-5.297,0-8.828,3.531-8.828,8.828 s3.531,8.828,8.828,8.828C278.952,194.207,282.483,190.676,282.483,185.379"/><path style="fill:#ce8d5b" d="M247.172,185.379c0-5.297-3.531-8.828-8.828-8.828s-8.828,3.531-8.828,8.828 s3.531,8.828,8.828,8.828S247.172,190.676,247.172,185.379"/></g><g><path style="fill:#9e5a23" d="M229.517,132.414c0,5.297,3.531,8.828,8.828,8.828s8.828-3.531,8.828-8.828 c0-5.297-3.531-8.828-8.828-8.828S229.517,127.117,229.517,132.414"/><path style="fill:#9e5a23" d="M264.828,132.414c0,5.297,3.531,8.828,8.828,8.828c5.297,0,8.828-3.531,8.828-8.828 c0-5.297-3.531-8.828-8.828-8.828C268.359,123.586,264.828,127.117,264.828,132.414"/></g><g><path style="fill:#ce8d5b" d="M105.931,26.483c0-5.297-3.531-8.828-8.828-8.828c-5.297,0-8.828,3.531-8.828,8.828 s3.531,8.828,8.828,8.828C102.4,35.31,105.931,31.779,105.931,26.483"/><path style="fill:#ce8d5b" d="M70.621,26.483c0-5.297-3.531-8.828-8.828-8.828s-8.828,3.531-8.828,8.828s3.531,8.828,8.828,8.828 S70.621,31.779,70.621,26.483"/><path style="fill:#ce8d5b" d="M105.931,485.517c0-5.297-3.531-8.828-8.828-8.828c-5.297,0-8.828,3.531-8.828,8.828 s3.531,8.828,8.828,8.828C102.4,494.345,105.931,490.814,105.931,485.517"/><path style="fill:#ce8d5b" d="M70.621,485.517c0-5.297-3.531-8.828-8.828-8.828s-8.828,3.531-8.828,8.828s3.531,8.828,8.828,8.828 S70.621,490.814,70.621,485.517"/></g><g><path style="fill:#9e5a23" d="M370.759,26.483c0-5.297-3.531-8.828-8.828-8.828s-8.828,3.531-8.828,8.828s3.531,8.828,8.828,8.828 S370.759,31.779,370.759,26.483"/><path style="fill:#9e5a23" d="M335.448,26.483c0-5.297-3.531-8.828-8.828-8.828s-8.828,3.531-8.828,8.828s3.531,8.828,8.828,8.828 S335.448,31.779,335.448,26.483"/><path style="fill:#9e5a23" d="M370.759,485.517c0-5.297-3.531-8.828-8.828-8.828s-8.828,3.531-8.828,8.828 s3.531,8.828,8.828,8.828S370.759,490.814,370.759,485.517"/><path style="fill:#9e5a23" d="M335.448,485.517c0-5.297-3.531-8.828-8.828-8.828s-8.828,3.531-8.828,8.828 s3.531,8.828,8.828,8.828S335.448,490.814,335.448,485.517"/></g></svg>